<svg width="37" height="37" viewBox="0 0 37 37" fill="none" xmlns="http://www.w3.org/2000/svg">
<path d="M18.5 3.08301C15.5099 3.08869 12.586 3.96378 10.0844 5.60169C7.5828 7.2396 5.6115 9.56963 4.41061 12.308C3.20972 15.0463 2.83107 18.0748 3.32078 21.0245C3.8105 23.9743 5.14743 26.7179 7.16874 28.9213V28.9213C8.6124 30.4862 10.3645 31.7351 12.3147 32.5893C14.2649 33.4435 16.3709 33.8845 18.5 33.8845C20.6291 33.8845 22.7351 33.4435 24.6853 32.5893C26.6355 31.7351 28.3876 30.4862 29.8312 28.9213V28.9213C31.8526 26.7179 33.1895 23.9743 33.6792 21.0245C34.1689 18.0748 33.7903 15.0463 32.5894 12.308C31.3885 9.56963 29.4172 7.2396 26.9156 5.60169C24.414 3.96378 21.4901 3.08869 18.5 3.08301V3.08301ZM18.5 30.833C15.3064 30.8282 12.2392 29.5847 9.94374 27.3643C10.6406 25.6677 11.8262 24.2166 13.3497 23.1954C14.8732 22.1742 16.6659 21.629 18.5 21.629C20.3341 21.629 22.1268 22.1742 23.6503 23.1954C25.1738 24.2166 26.3593 25.6677 27.0562 27.3643C24.7608 29.5847 21.6936 30.8282 18.5 30.833ZM15.4167 15.4163C15.4167 14.8065 15.5975 14.2104 15.9363 13.7033C16.2751 13.1963 16.7566 12.8011 17.3201 12.5677C17.8835 12.3343 18.5034 12.2733 19.1015 12.3923C19.6996 12.5112 20.249 12.8049 20.6802 13.2361C21.1115 13.6673 21.4051 14.2167 21.5241 14.8148C21.6431 15.4129 21.582 16.0329 21.3486 16.5963C21.1153 17.1597 20.7201 17.6412 20.213 17.98C19.7059 18.3188 19.1098 18.4997 18.5 18.4997C17.6822 18.4997 16.898 18.1748 16.3197 17.5966C15.7415 17.0183 15.4167 16.2341 15.4167 15.4163ZM29.1529 24.6663C27.7755 22.3103 25.6555 20.4777 23.125 19.4555C23.91 18.5654 24.4214 17.4678 24.598 16.2942C24.7746 15.1207 24.6088 13.9211 24.1205 12.8394C23.6322 11.7578 22.8422 10.84 21.8453 10.1962C20.8483 9.55241 19.6868 9.20997 18.5 9.20997C17.3132 9.20997 16.1517 9.55241 15.1547 10.1962C14.1578 10.84 13.3677 11.7578 12.8795 12.8394C12.3912 13.9211 12.2254 15.1207 12.402 16.2942C12.5786 17.4678 13.09 18.5654 13.875 19.4555C11.3445 20.4777 9.22451 22.3103 7.84708 24.6663C6.74932 22.7965 6.16931 20.668 6.16666 18.4997C6.16666 15.2287 7.46606 12.0916 9.77901 9.77869C12.092 7.46574 15.229 6.16634 18.5 6.16634C21.771 6.16634 24.908 7.46574 27.221 9.77869C29.5339 12.0916 30.8333 15.2287 30.8333 18.4997C30.8307 20.668 30.2507 22.7965 29.1529 24.6663V24.6663Z" fill="#2B2D42"/>
</svg>
