<svg width="481" height="98" viewBox="0 0 481 98" fill="none" xmlns="http://www.w3.org/2000/svg">
<g clip-path="url(#clip0_298_454)">
<path d="M3.06641 1.07812H100.372V98.3846H3.06641V1.07812Z" fill="#FCFCFC"/>
<path d="M5.35449 3.36816H97.7626V50.7153H5.35449V3.36816Z" fill="#E60028"/>
<path d="M5.35449 49.4092H97.7626V95.7767H5.35449V49.4092Z" fill="#2B2D42"/>
<path d="M21.3633 46.7822H81.4449V52.3333H21.3633V46.7822Z" fill="#FCFCFC"/>
<path d="M159.471 13.461C154.573 11.5018 149.022 9.86923 144.45 9.86923C137.593 9.86923 134.001 11.5018 134.001 14.1141C134.001 21.6243 165.022 15.7468 165.022 32.0734C165.022 38.9305 158.817 44.1551 146.083 44.1551C138.573 44.1551 132.695 42.5223 125.838 38.9304L128.777 32.7265C134.654 35.9918 140.205 37.6244 146.083 37.6244C153.593 37.6244 157.511 35.3387 157.511 32.0734C157.511 23.5835 126.491 30.1142 126.491 14.7672C126.491 8.23657 132.695 3.66504 144.124 3.66504C150.981 3.66504 156.532 5.29766 162.083 7.90991L159.471 13.461Z" fill="#2B2D42"/>
<path d="M193.755 44.1607C181.347 44.1607 171.225 35.9975 171.225 23.5893C171.225 11.5076 181.347 3.01758 193.755 3.01758C206.163 3.01758 216.286 11.5076 216.286 23.5893C216.286 35.9975 206.163 44.1607 193.755 44.1607ZM193.755 9.87487C184.612 9.87487 178.735 16.0789 178.735 23.9157C178.735 31.7525 184.612 37.9565 193.755 37.9565C202.898 37.9565 208.776 32.079 208.776 23.9157C208.776 16.0789 202.898 9.87487 193.755 9.87487Z" fill="#2B2D42"/>
<path d="M245.674 44.1607C232.612 44.1607 222.816 35.9975 222.816 23.5893C222.816 11.5076 232.612 3.01758 245.674 3.01758C253.184 3.01758 258.735 5.30346 263.633 8.89531L259.714 14.4462C256.123 11.8339 251.551 9.54822 245.674 9.54822C236.204 9.54822 230.327 15.4258 230.327 23.2626C230.327 31.0994 236.204 36.977 245.674 36.977C251.551 36.977 256.449 35.0177 259.714 32.4055L263.633 37.9565C259.061 42.2015 253.184 44.1607 245.674 44.1607Z" fill="#2B2D42"/>
<path d="M271.795 4.33398H278.979V43.1914H271.795V4.33398Z" fill="#2B2D42"/>
<path d="M325.019 10.8617H296.938V20.3312H318.815V26.5353H296.938V36.6578H326.325V43.1884H289.754V4.33105H325.019V10.8617Z" fill="#2B2D42"/>
<path d="M345.923 10.8617H329.923V4.33105H368.78V10.8617H353.107V43.1884H345.923V10.8617Z" fill="#2B2D42"/>
<path d="M409.921 10.8617H381.84V20.3312H403.718V26.5353H381.84V36.6578H411.228V43.1884H374.656V4.33105H409.921V10.8617Z" fill="#2B2D42"/>
<path d="M147.715 88.8825C151.633 88.8825 155.552 87.9029 158.817 86.5968V75.4946H165.674V90.5152C160.776 93.7805 153.919 95.7396 147.388 95.7396C134.327 95.7396 124.531 87.5764 124.531 75.1682C124.531 63.0865 134.327 54.5967 147.388 54.5967C154.899 54.5967 160.45 56.5558 165.348 60.4742L161.429 66.0253C157.837 63.413 153.266 61.4538 147.388 61.4538C137.919 61.1272 132.041 67.3314 132.041 75.1682C132.368 83.3315 138.246 88.8825 147.715 88.8825Z" fill="#2B2D42"/>
<path d="M210.41 62.4379H182.329V71.9073H204.206V78.1114H182.329V88.2339H211.716V94.7645H175.145V55.9072H210.41V62.4379Z" fill="#2B2D42"/>
<path d="M225.758 94.7646H218.574V55.9072H225.758L250.901 84.9686H251.227C250.901 77.7849 250.901 71.5809 250.901 66.0298V55.9072H257.758V94.7646H250.574L225.431 65.7032C225.758 71.5808 225.758 81.3767 225.758 84.642V94.7646Z" fill="#2B2D42"/>
<path d="M303.468 62.4379H275.387V71.9073H297.264V78.1114H275.387V88.2339H304.774V94.7645H268.203V55.9072H303.468V62.4379Z" fill="#2B2D42"/>
<path d="M330.898 80.3971H319.47V94.7646H312.286V55.9072H337.102C345.266 55.9072 350.49 61.1317 350.49 68.3154C350.49 75.1726 345.592 79.4175 339.388 80.3971L350.817 94.7646H341.674L330.898 80.3971ZM336.449 74.1931C341.021 74.1931 343.633 71.9074 343.633 68.6421C343.633 65.0502 341.347 62.7645 337.429 62.7645H319.796V74.5196H336.449V74.1931Z" fill="#2B2D42"/>
<path d="M365.514 85.2951L360.942 94.7646H353.105L372.044 55.9072H379.554L398.493 94.7646H390.656L386.085 85.2951H365.514ZM368.779 79.0911H383.799L376.289 63.4174L368.779 79.0911Z" fill="#2B2D42"/>
<path d="M411.225 88.2339H437.021V94.7645H404.041V55.9072H411.225V88.2339Z" fill="#2B2D42"/>
<path d="M477.187 62.4379H449.105V71.9073H470.983V78.1114H449.105V88.2339H478.493V94.7645H441.922V55.9072H477.187V62.4379Z" fill="#2B2D42"/>
</g>
<defs>
<clipPath id="clip0_298_454">
<rect width="480" height="97.9596" fill="white" transform="translate(0.5)"/>
</clipPath>
</defs>
</svg>
