<svg width="23" height="23" viewBox="0 0 23 23" fill="none" xmlns="http://www.w3.org/2000/svg">
<path d="M6.06668 1.88281H14.5373C15.0365 1.88281 15.5153 2.08113 15.8683 2.43414C16.2213 2.78715 16.4196 3.26593 16.4196 3.76517V5.64752H14.5373V3.76517H6.06668V18.824H14.5373V16.9416H16.4196V18.824C16.4196 19.3232 16.2213 19.802 15.8683 20.155C15.5153 20.508 15.0365 20.7063 14.5373 20.7063H6.06668C5.56745 20.7063 5.08866 20.508 4.73565 20.155C4.38264 19.802 4.18433 19.3232 4.18433 18.824V3.76517C4.18433 3.26593 4.38264 2.78715 4.73565 2.43414C5.08866 2.08113 5.56745 1.88281 6.06668 1.88281Z" fill="#EF233C"/>
<path d="M15.559 14.6726L16.8861 15.9997L21.592 11.2938L16.8861 6.58789L15.559 7.91495L17.9873 10.3526H8.88608V12.2349H17.9873L15.559 14.6726Z" fill="#EF233C"/>
</svg>
