<svg width="129" height="129" viewBox="0 0 129 129" fill="none" xmlns="http://www.w3.org/2000/svg">
<path d="M102.125 53.75C100.699 53.75 99.3323 54.3163 98.3243 55.3243C97.3163 56.3323 96.75 57.6995 96.75 59.125V77.2925L88.795 69.3375C85.9862 66.5508 82.1898 64.9871 78.2331 64.9871C74.2764 64.9871 70.4801 66.5508 67.6713 69.3375L63.9088 73.1537L50.5787 59.77C47.7699 56.9833 43.9736 55.4196 40.0169 55.4196C36.0602 55.4196 32.2639 56.9833 29.455 59.77L21.5 67.7787V37.625C21.5 36.1995 22.0663 34.8323 23.0743 33.8243C24.0823 32.8163 25.4495 32.25 26.875 32.25H69.875C71.3005 32.25 72.6677 31.6837 73.6757 30.6757C74.6837 29.6677 75.25 28.3005 75.25 26.875C75.25 25.4495 74.6837 24.0823 73.6757 23.0743C72.6677 22.0663 71.3005 21.5 69.875 21.5H26.875C22.5984 21.5 18.4969 23.1989 15.4729 26.2229C12.4489 29.2469 10.75 33.3484 10.75 37.625V103.307C10.7642 107.266 12.343 111.059 15.1422 113.858C17.9414 116.657 21.7339 118.236 25.6925 118.25H92.5575C94.014 118.238 95.4617 118.021 96.8575 117.605V117.605C99.9612 116.734 102.694 114.87 104.635 112.297C106.577 109.724 107.621 106.585 107.608 103.361V59.125C107.608 58.41 107.465 57.7022 107.188 57.0429C106.912 56.3837 106.506 55.7863 105.995 55.2858C105.485 54.7852 104.88 54.3916 104.215 54.1279C103.55 53.8642 102.84 53.7357 102.125 53.75ZM26.875 107.5C25.4495 107.5 24.0823 106.934 23.0743 105.926C22.0663 104.918 21.5 103.551 21.5 102.125V82.9363L37.0337 67.4025C37.8193 66.6213 38.8821 66.1828 39.99 66.1828C41.0979 66.1828 42.1607 66.6213 42.9462 67.4025L83.0975 107.5H26.875ZM96.75 102.125C96.7155 103.166 96.3794 104.174 95.7825 105.028L71.4875 80.625L75.3038 76.8625C75.6891 76.4692 76.1491 76.1567 76.6567 75.9434C77.1643 75.7301 77.7094 75.6203 78.26 75.6203C78.8106 75.6203 79.3557 75.7301 79.8633 75.9434C80.3709 76.1567 80.8309 76.4692 81.2162 76.8625L96.75 92.5037V102.125ZM112.875 21.5H107.5V16.125C107.5 14.6995 106.934 13.3323 105.926 12.3243C104.918 11.3163 103.551 10.75 102.125 10.75C100.699 10.75 99.3323 11.3163 98.3243 12.3243C97.3163 13.3323 96.75 14.6995 96.75 16.125V21.5H91.375C89.9495 21.5 88.5823 22.0663 87.5743 23.0743C86.5663 24.0823 86 25.4495 86 26.875C86 28.3005 86.5663 29.6677 87.5743 30.6757C88.5823 31.6837 89.9495 32.25 91.375 32.25H96.75V37.625C96.75 39.0505 97.3163 40.4177 98.3243 41.4257C99.3323 42.4337 100.699 43 102.125 43C103.551 43 104.918 42.4337 105.926 41.4257C106.934 40.4177 107.5 39.0505 107.5 37.625V32.25H112.875C114.301 32.25 115.668 31.6837 116.676 30.6757C117.684 29.6677 118.25 28.3005 118.25 26.875C118.25 25.4495 117.684 24.0823 116.676 23.0743C115.668 22.0663 114.301 21.5 112.875 21.5V21.5Z" fill="#2B2D42"/>
</svg>
