<svg width="560" height="505" viewBox="0 0 560 505" fill="none" xmlns="http://www.w3.org/2000/svg">
<path d="M421.909 147.315C421.909 225.688 358.374 289.223 280 289.223C201.626 289.223 138.092 225.688 138.092 147.315C138.092 68.9406 201.626 5.40604 280 5.40604C358.374 5.40604 421.909 68.9406 421.909 147.315Z" stroke="#FCFCFC" stroke-width="10.8121"/>
<path fill-rule="evenodd" clip-rule="evenodd" d="M278.651 270.302C347.322 270.302 402.99 214.633 402.99 145.963C402.99 77.2925 347.322 21.624 278.651 21.624C209.981 21.624 154.312 77.2925 154.312 145.963C154.312 214.633 209.981 270.302 278.651 270.302ZM271.798 69.7928H228.271V222.133H271.798V69.7928ZM315.309 69.7944H282.664V105.703V141.612H315.309H317.485V141.533C334.499 140.301 347.953 124.73 347.953 105.703C347.953 86.6757 334.499 71.1048 317.485 69.8729V69.7944H315.309ZM282.664 150.316H315.309H317.485V150.395C334.499 151.627 347.953 167.198 347.953 186.225C347.953 205.253 334.499 220.823 317.485 222.055V222.134H315.309H282.664V186.225V150.316Z" fill="#FCFCFC"/>
<path d="M10.312 464.629H91.335C109.013 464.629 126.691 464.629 126.691 444.741V425.591C126.691 415.279 119.325 412.332 113.432 410.859C119.325 409.386 125.217 404.966 125.217 396.128V387.289C125.217 367.401 107.54 367.401 89.8619 367.401H10.312V464.629ZM35.3555 448.424V419.698H92.8082C97.2276 419.698 101.647 419.698 101.647 424.854V443.268C101.647 448.424 97.2276 448.424 92.8082 448.424H35.3555ZM35.3555 403.493V383.606H91.335C95.7545 383.606 100.174 383.606 100.174 388.762V398.337C100.174 403.493 95.7545 403.493 91.335 403.493H35.3555ZM145.795 447.688C145.795 464.629 160.527 464.629 175.258 464.629H237.13V410.859C237.13 393.918 222.399 393.918 207.668 393.918H151.688V407.913H206.194C209.877 407.913 213.56 407.913 213.56 412.332V420.435H175.258C160.527 420.435 145.795 420.435 145.795 437.376V447.688ZM169.366 446.215V438.849C169.366 434.429 173.049 434.429 176.731 434.429H213.56V450.634H176.731C173.049 450.634 169.366 450.634 169.366 446.215ZM254.843 464.629H278.413V407.913H315.242C318.925 407.913 322.607 407.913 322.607 412.332V464.629H346.178V410.859C346.178 393.918 331.446 393.918 316.715 393.918H254.843V464.629ZM363.89 464.629H387.46V454.317L399.982 441.795L422.816 464.629H450.806L413.977 427.8L447.859 393.918H419.87L387.46 426.327V367.401H363.89V464.629ZM456.687 393.918L494.252 469.048L489.833 477.887C487.623 482.307 486.886 483.78 480.257 483.78H465.526V497.775H490.569C504.564 497.775 508.247 491.146 512.666 482.307L556.861 393.918H531.817L506.774 444.005L481.73 393.918H456.687Z" fill="#FCFCFC"/>
</svg>